<mxfile host="app.diagrams.net" agent="Mozilla/5.0 (Windows NT 10.0; Win64; x64) AppleWebKit/537.36 (KHTML, like Gecko) Chrome/136.0.0.0 Safari/537.36" version="27.0.6">
  <diagram name="PÃ¡gina-1" id="AuudWSX5zqfcTe7rYrvf">
    <mxGraphModel dx="2962" dy="2106" grid="1" gridSize="10" guides="1" tooltips="1" connect="1" arrows="1" fold="1" page="1" pageScale="1" pageWidth="827" pageHeight="1169" math="0" shadow="0">
      <root>
        <mxCell id="0" />
        <mxCell id="1" parent="0" />
        <mxCell id="wzAtk1X6lChH-rVsv0TU-1" value="Usuario" style="rounded=0;whiteSpace=wrap;html=1;" vertex="1" parent="1">
          <mxGeometry x="40" y="70" width="180" height="100" as="geometry" />
        </mxCell>
        <mxCell id="wzAtk1X6lChH-rVsv0TU-2" value="inscripcion" style="rounded=0;whiteSpace=wrap;html=1;" vertex="1" parent="1">
          <mxGeometry x="250" y="400" width="120" height="60" as="geometry" />
        </mxCell>
        <mxCell id="wzAtk1X6lChH-rVsv0TU-3" value="Evento" style="rounded=0;whiteSpace=wrap;html=1;" vertex="1" parent="1">
          <mxGeometry x="340" y="20" width="300" height="180" as="geometry" />
        </mxCell>
        <mxCell id="wzAtk1X6lChH-rVsv0TU-4" value="categoria" style="rounded=0;whiteSpace=wrap;html=1;" vertex="1" parent="1">
          <mxGeometry x="1020" y="60" width="120" height="60" as="geometry" />
        </mxCell>
        <mxCell id="wzAtk1X6lChH-rVsv0TU-5" value="Organizador" style="rounded=0;whiteSpace=wrap;html=1;" vertex="1" parent="1">
          <mxGeometry x="1000" y="380" width="120" height="60" as="geometry" />
        </mxCell>
        <mxCell id="wzAtk1X6lChH-rVsv0TU-6" value="ubicacion" style="rounded=0;whiteSpace=wrap;html=1;" vertex="1" parent="1">
          <mxGeometry x="660" y="420" width="120" height="60" as="geometry" />
        </mxCell>
        <mxCell id="wzAtk1X6lChH-rVsv0TU-7" value="Relationship" style="shape=rhombus;perimeter=rhombusPerimeter;whiteSpace=wrap;html=1;align=center;" vertex="1" parent="1">
          <mxGeometry x="790" y="80" width="120" height="60" as="geometry" />
        </mxCell>
        <mxCell id="wzAtk1X6lChH-rVsv0TU-8" value="Relationship" style="shape=rhombus;perimeter=rhombusPerimeter;whiteSpace=wrap;html=1;align=center;" vertex="1" parent="1">
          <mxGeometry x="200" y="240" width="120" height="60" as="geometry" />
        </mxCell>
        <mxCell id="wzAtk1X6lChH-rVsv0TU-9" value="Relationship" style="shape=rhombus;perimeter=rhombusPerimeter;whiteSpace=wrap;html=1;align=center;" vertex="1" parent="1">
          <mxGeometry x="830" y="210" width="120" height="60" as="geometry" />
        </mxCell>
        <mxCell id="wzAtk1X6lChH-rVsv0TU-10" value="Relationship" style="shape=rhombus;perimeter=rhombusPerimeter;whiteSpace=wrap;html=1;align=center;" vertex="1" parent="1">
          <mxGeometry x="610" y="250" width="120" height="60" as="geometry" />
        </mxCell>
        <mxCell id="wzAtk1X6lChH-rVsv0TU-11" value="Relationship" style="shape=rhombus;perimeter=rhombusPerimeter;whiteSpace=wrap;html=1;align=center;" vertex="1" parent="1">
          <mxGeometry x="360" y="260" width="120" height="60" as="geometry" />
        </mxCell>
        <mxCell id="wzAtk1X6lChH-rVsv0TU-14" value="" style="endArrow=none;html=1;rounded=0;entryX=0;entryY=0;entryDx=0;entryDy=0;" edge="1" parent="1" target="wzAtk1X6lChH-rVsv0TU-8">
          <mxGeometry relative="1" as="geometry">
            <mxPoint x="140" y="170" as="sourcePoint" />
            <mxPoint x="300" y="170" as="targetPoint" />
          </mxGeometry>
        </mxCell>
        <mxCell id="wzAtk1X6lChH-rVsv0TU-15" value="" style="endArrow=none;html=1;rounded=0;entryX=0.417;entryY=0;entryDx=0;entryDy=0;entryPerimeter=0;" edge="1" parent="1" target="wzAtk1X6lChH-rVsv0TU-2">
          <mxGeometry relative="1" as="geometry">
            <mxPoint x="270" y="295" as="sourcePoint" />
            <mxPoint x="360" y="380" as="targetPoint" />
          </mxGeometry>
        </mxCell>
        <mxCell id="wzAtk1X6lChH-rVsv0TU-16" value="" style="endArrow=none;html=1;rounded=0;entryX=1;entryY=0;entryDx=0;entryDy=0;" edge="1" parent="1" target="wzAtk1X6lChH-rVsv0TU-2">
          <mxGeometry relative="1" as="geometry">
            <mxPoint x="420" y="320" as="sourcePoint" />
            <mxPoint x="510" y="405" as="targetPoint" />
          </mxGeometry>
        </mxCell>
        <mxCell id="wzAtk1X6lChH-rVsv0TU-17" value="" style="endArrow=none;html=1;rounded=0;entryX=0.5;entryY=0;entryDx=0;entryDy=0;exitX=0.29;exitY=1.001;exitDx=0;exitDy=0;exitPerimeter=0;" edge="1" parent="1" source="wzAtk1X6lChH-rVsv0TU-3" target="wzAtk1X6lChH-rVsv0TU-11">
          <mxGeometry relative="1" as="geometry">
            <mxPoint x="480" y="350" as="sourcePoint" />
            <mxPoint x="570" y="435" as="targetPoint" />
          </mxGeometry>
        </mxCell>
        <mxCell id="wzAtk1X6lChH-rVsv0TU-18" value="" style="endArrow=none;html=1;rounded=0;entryX=0;entryY=0.5;entryDx=0;entryDy=0;exitX=1.01;exitY=0.566;exitDx=0;exitDy=0;exitPerimeter=0;" edge="1" parent="1" source="wzAtk1X6lChH-rVsv0TU-3" target="wzAtk1X6lChH-rVsv0TU-7">
          <mxGeometry relative="1" as="geometry">
            <mxPoint x="700" y="190" as="sourcePoint" />
            <mxPoint x="790" y="275" as="targetPoint" />
          </mxGeometry>
        </mxCell>
        <mxCell id="wzAtk1X6lChH-rVsv0TU-19" value="" style="endArrow=none;html=1;rounded=0;entryX=0;entryY=0.5;entryDx=0;entryDy=0;exitX=1;exitY=0.5;exitDx=0;exitDy=0;" edge="1" parent="1" source="wzAtk1X6lChH-rVsv0TU-7" target="wzAtk1X6lChH-rVsv0TU-4">
          <mxGeometry relative="1" as="geometry">
            <mxPoint x="930" y="160" as="sourcePoint" />
            <mxPoint x="1020" y="245" as="targetPoint" />
          </mxGeometry>
        </mxCell>
        <mxCell id="wzAtk1X6lChH-rVsv0TU-20" value="" style="endArrow=none;html=1;rounded=0;entryX=0.315;entryY=0.183;entryDx=0;entryDy=0;exitX=0.855;exitY=0.997;exitDx=0;exitDy=0;exitPerimeter=0;entryPerimeter=0;" edge="1" parent="1" source="wzAtk1X6lChH-rVsv0TU-3" target="wzAtk1X6lChH-rVsv0TU-10">
          <mxGeometry relative="1" as="geometry">
            <mxPoint x="580" y="220" as="sourcePoint" />
            <mxPoint x="670" y="305" as="targetPoint" />
          </mxGeometry>
        </mxCell>
        <mxCell id="wzAtk1X6lChH-rVsv0TU-21" value="" style="endArrow=none;html=1;rounded=0;entryX=0.75;entryY=0;entryDx=0;entryDy=0;" edge="1" parent="1" source="wzAtk1X6lChH-rVsv0TU-10" target="wzAtk1X6lChH-rVsv0TU-6">
          <mxGeometry relative="1" as="geometry">
            <mxPoint x="650" y="340" as="sourcePoint" />
            <mxPoint x="740" y="425" as="targetPoint" />
          </mxGeometry>
        </mxCell>
        <mxCell id="wzAtk1X6lChH-rVsv0TU-22" value="" style="endArrow=none;html=1;rounded=0;entryX=0;entryY=0.5;entryDx=0;entryDy=0;exitX=0.997;exitY=0.859;exitDx=0;exitDy=0;exitPerimeter=0;" edge="1" parent="1" source="wzAtk1X6lChH-rVsv0TU-3" target="wzAtk1X6lChH-rVsv0TU-9">
          <mxGeometry relative="1" as="geometry">
            <mxPoint x="720" y="200" as="sourcePoint" />
            <mxPoint x="810" y="285" as="targetPoint" />
          </mxGeometry>
        </mxCell>
        <mxCell id="wzAtk1X6lChH-rVsv0TU-23" value="" style="endArrow=none;html=1;rounded=0;entryX=0;entryY=0;entryDx=0;entryDy=0;exitX=0.648;exitY=0.903;exitDx=0;exitDy=0;exitPerimeter=0;" edge="1" parent="1" source="wzAtk1X6lChH-rVsv0TU-9" target="wzAtk1X6lChH-rVsv0TU-5">
          <mxGeometry relative="1" as="geometry">
            <mxPoint x="830" y="360" as="sourcePoint" />
            <mxPoint x="920" y="445" as="targetPoint" />
          </mxGeometry>
        </mxCell>
        <mxCell id="wzAtk1X6lChH-rVsv0TU-24" value="1:N" style="text;html=1;align=center;verticalAlign=middle;resizable=0;points=[];autosize=1;strokeColor=none;fillColor=none;" vertex="1" parent="1">
          <mxGeometry x="830" y="50" width="40" height="30" as="geometry" />
        </mxCell>
        <mxCell id="wzAtk1X6lChH-rVsv0TU-25" value="(1,n)" style="text;html=1;align=center;verticalAlign=middle;resizable=0;points=[];autosize=1;strokeColor=none;fillColor=none;" vertex="1" parent="1">
          <mxGeometry x="640" y="90" width="50" height="30" as="geometry" />
        </mxCell>
        <mxCell id="wzAtk1X6lChH-rVsv0TU-26" value="(1,n)" style="text;html=1;align=center;verticalAlign=middle;resizable=0;points=[];autosize=1;strokeColor=none;fillColor=none;" vertex="1" parent="1">
          <mxGeometry x="990" y="350" width="50" height="30" as="geometry" />
        </mxCell>
        <mxCell id="wzAtk1X6lChH-rVsv0TU-27" value="(1,n)" style="text;html=1;align=center;verticalAlign=middle;resizable=0;points=[];autosize=1;strokeColor=none;fillColor=none;" vertex="1" parent="1">
          <mxGeometry x="420" y="200" width="50" height="30" as="geometry" />
        </mxCell>
        <mxCell id="wzAtk1X6lChH-rVsv0TU-28" value="(1,n)" style="text;html=1;align=center;verticalAlign=middle;resizable=0;points=[];autosize=1;strokeColor=none;fillColor=none;" vertex="1" parent="1">
          <mxGeometry x="364" y="390" width="50" height="30" as="geometry" />
        </mxCell>
        <mxCell id="wzAtk1X6lChH-rVsv0TU-29" value="(1,n)" style="text;html=1;align=center;verticalAlign=middle;resizable=0;points=[];autosize=1;strokeColor=none;fillColor=none;" vertex="1" parent="1">
          <mxGeometry x="250" y="370" width="50" height="30" as="geometry" />
        </mxCell>
        <mxCell id="wzAtk1X6lChH-rVsv0TU-30" value="1:N" style="text;html=1;align=center;verticalAlign=middle;resizable=0;points=[];autosize=1;strokeColor=none;fillColor=none;" vertex="1" parent="1">
          <mxGeometry x="880" y="190" width="40" height="30" as="geometry" />
        </mxCell>
        <mxCell id="wzAtk1X6lChH-rVsv0TU-31" value="1:N" style="text;html=1;align=center;verticalAlign=middle;resizable=0;points=[];autosize=1;strokeColor=none;fillColor=none;" vertex="1" parent="1">
          <mxGeometry x="580" y="270" width="40" height="30" as="geometry" />
        </mxCell>
        <mxCell id="wzAtk1X6lChH-rVsv0TU-32" value="1:N" style="text;html=1;align=center;verticalAlign=middle;resizable=0;points=[];autosize=1;strokeColor=none;fillColor=none;" vertex="1" parent="1">
          <mxGeometry x="460" y="290" width="40" height="30" as="geometry" />
        </mxCell>
        <mxCell id="wzAtk1X6lChH-rVsv0TU-33" value="1:N" style="text;html=1;align=center;verticalAlign=middle;resizable=0;points=[];autosize=1;strokeColor=none;fillColor=none;" vertex="1" parent="1">
          <mxGeometry x="170" y="265" width="40" height="30" as="geometry" />
        </mxCell>
        <mxCell id="wzAtk1X6lChH-rVsv0TU-34" value="(1,1)" style="text;html=1;align=center;verticalAlign=middle;resizable=0;points=[];autosize=1;strokeColor=none;fillColor=none;" vertex="1" parent="1">
          <mxGeometry x="155" y="168" width="50" height="30" as="geometry" />
        </mxCell>
        <mxCell id="wzAtk1X6lChH-rVsv0TU-35" value="(1,1)" style="text;html=1;align=center;verticalAlign=middle;resizable=0;points=[];autosize=1;strokeColor=none;fillColor=none;" vertex="1" parent="1">
          <mxGeometry x="560" y="200" width="50" height="30" as="geometry" />
        </mxCell>
        <mxCell id="wzAtk1X6lChH-rVsv0TU-36" value="(1,1)" style="text;html=1;align=center;verticalAlign=middle;resizable=0;points=[];autosize=1;strokeColor=none;fillColor=none;" vertex="1" parent="1">
          <mxGeometry x="690" y="395" width="50" height="30" as="geometry" />
        </mxCell>
        <mxCell id="wzAtk1X6lChH-rVsv0TU-37" value="(1,1)" style="text;html=1;align=center;verticalAlign=middle;resizable=0;points=[];autosize=1;strokeColor=none;fillColor=none;" vertex="1" parent="1">
          <mxGeometry x="660" y="160" width="50" height="30" as="geometry" />
        </mxCell>
        <mxCell id="wzAtk1X6lChH-rVsv0TU-38" value="(1,1)" style="text;html=1;align=center;verticalAlign=middle;resizable=0;points=[];autosize=1;strokeColor=none;fillColor=none;" vertex="1" parent="1">
          <mxGeometry x="970" y="70" width="50" height="30" as="geometry" />
        </mxCell>
        <mxCell id="wzAtk1X6lChH-rVsv0TU-40" value="id_usuario" style="ellipse;whiteSpace=wrap;html=1;align=center;fontStyle=4;" vertex="1" parent="1">
          <mxGeometry x="-30" y="-50" width="100" height="40" as="geometry" />
        </mxCell>
        <mxCell id="wzAtk1X6lChH-rVsv0TU-41" value="id_evento" style="ellipse;whiteSpace=wrap;html=1;align=center;fontStyle=4;" vertex="1" parent="1">
          <mxGeometry x="264" y="-160" width="100" height="40" as="geometry" />
        </mxCell>
        <mxCell id="wzAtk1X6lChH-rVsv0TU-42" value="id_inscripcion" style="ellipse;whiteSpace=wrap;html=1;align=center;fontStyle=4;" vertex="1" parent="1">
          <mxGeometry x="250" y="510" width="100" height="40" as="geometry" />
        </mxCell>
        <mxCell id="wzAtk1X6lChH-rVsv0TU-43" value="id_ubicacion" style="ellipse;whiteSpace=wrap;html=1;align=center;fontStyle=4;" vertex="1" parent="1">
          <mxGeometry x="660" y="530" width="100" height="40" as="geometry" />
        </mxCell>
        <mxCell id="wzAtk1X6lChH-rVsv0TU-44" value="id_organizador" style="ellipse;whiteSpace=wrap;html=1;align=center;fontStyle=4;" vertex="1" parent="1">
          <mxGeometry x="1100" y="500" width="100" height="40" as="geometry" />
        </mxCell>
        <mxCell id="wzAtk1X6lChH-rVsv0TU-45" value="id_categoria" style="ellipse;whiteSpace=wrap;html=1;align=center;fontStyle=4;" vertex="1" parent="1">
          <mxGeometry x="1220" y="90" width="100" height="40" as="geometry" />
        </mxCell>
        <mxCell id="wzAtk1X6lChH-rVsv0TU-46" value="password" style="ellipse;whiteSpace=wrap;html=1;align=center;" vertex="1" parent="1">
          <mxGeometry x="-150" y="255" width="100" height="40" as="geometry" />
        </mxCell>
        <mxCell id="wzAtk1X6lChH-rVsv0TU-47" value="nombre" style="ellipse;whiteSpace=wrap;html=1;align=center;" vertex="1" parent="1">
          <mxGeometry x="-160" y="10" width="100" height="40" as="geometry" />
        </mxCell>
        <mxCell id="wzAtk1X6lChH-rVsv0TU-48" value="email" style="ellipse;whiteSpace=wrap;html=1;align=center;" vertex="1" parent="1">
          <mxGeometry x="-180" y="118" width="100" height="50" as="geometry" />
        </mxCell>
        <mxCell id="wzAtk1X6lChH-rVsv0TU-49" value="id_usuario" style="ellipse;whiteSpace=wrap;html=1;align=center;" vertex="1" parent="1">
          <mxGeometry x="120" y="480" width="100" height="40" as="geometry" />
        </mxCell>
        <mxCell id="wzAtk1X6lChH-rVsv0TU-50" value="id_evento" style="ellipse;whiteSpace=wrap;html=1;align=center;" vertex="1" parent="1">
          <mxGeometry x="380" y="480" width="100" height="40" as="geometry" />
        </mxCell>
        <mxCell id="wzAtk1X6lChH-rVsv0TU-51" value="fecha_insc" style="ellipse;whiteSpace=wrap;html=1;align=center;" vertex="1" parent="1">
          <mxGeometry x="414" y="420" width="100" height="40" as="geometry" />
        </mxCell>
        <mxCell id="wzAtk1X6lChH-rVsv0TU-52" value="direccion" style="ellipse;whiteSpace=wrap;html=1;align=center;" vertex="1" parent="1">
          <mxGeometry x="790" y="530" width="100" height="40" as="geometry" />
        </mxCell>
        <mxCell id="wzAtk1X6lChH-rVsv0TU-53" value="enlace_online" style="ellipse;whiteSpace=wrap;html=1;align=center;" vertex="1" parent="1">
          <mxGeometry x="535" y="500" width="100" height="40" as="geometry" />
        </mxCell>
        <mxCell id="wzAtk1X6lChH-rVsv0TU-54" value="tipo" style="ellipse;whiteSpace=wrap;html=1;align=center;" vertex="1" parent="1">
          <mxGeometry x="810" y="430" width="100" height="40" as="geometry" />
        </mxCell>
        <mxCell id="wzAtk1X6lChH-rVsv0TU-55" value="nombre" style="ellipse;whiteSpace=wrap;html=1;align=center;" vertex="1" parent="1">
          <mxGeometry x="980" y="500" width="100" height="40" as="geometry" />
        </mxCell>
        <mxCell id="wzAtk1X6lChH-rVsv0TU-56" value="contacto" style="ellipse;whiteSpace=wrap;html=1;align=center;" vertex="1" parent="1">
          <mxGeometry x="1160" y="390" width="100" height="40" as="geometry" />
        </mxCell>
        <mxCell id="wzAtk1X6lChH-rVsv0TU-57" value="nombre" style="ellipse;whiteSpace=wrap;html=1;align=center;" vertex="1" parent="1">
          <mxGeometry x="1220" y="10" width="100" height="40" as="geometry" />
        </mxCell>
        <mxCell id="wzAtk1X6lChH-rVsv0TU-58" value="imagen_url" style="ellipse;whiteSpace=wrap;html=1;align=center;" vertex="1" parent="1">
          <mxGeometry x="670" y="-160" width="100" height="40" as="geometry" />
        </mxCell>
        <mxCell id="wzAtk1X6lChH-rVsv0TU-59" value="descripcion" style="ellipse;whiteSpace=wrap;html=1;align=center;" vertex="1" parent="1">
          <mxGeometry x="570" y="-160" width="100" height="40" as="geometry" />
        </mxCell>
        <mxCell id="wzAtk1X6lChH-rVsv0TU-60" value="id_organizacion" style="ellipse;whiteSpace=wrap;html=1;align=center;" vertex="1" parent="1">
          <mxGeometry x="800" y="-60" width="110" height="40" as="geometry" />
        </mxCell>
        <mxCell id="wzAtk1X6lChH-rVsv0TU-61" value="duracion_horas" style="ellipse;whiteSpace=wrap;html=1;align=center;" vertex="1" parent="1">
          <mxGeometry x="470" y="-160" width="100" height="40" as="geometry" />
        </mxCell>
        <mxCell id="wzAtk1X6lChH-rVsv0TU-62" value="nombre" style="ellipse;whiteSpace=wrap;html=1;align=center;" vertex="1" parent="1">
          <mxGeometry x="170" y="-120" width="100" height="40" as="geometry" />
        </mxCell>
        <mxCell id="wzAtk1X6lChH-rVsv0TU-63" value="fecha" style="ellipse;whiteSpace=wrap;html=1;align=center;" vertex="1" parent="1">
          <mxGeometry x="364" y="-160" width="100" height="40" as="geometry" />
        </mxCell>
        <mxCell id="wzAtk1X6lChH-rVsv0TU-64" value="id_ubicacion" style="ellipse;whiteSpace=wrap;html=1;align=center;" vertex="1" parent="1">
          <mxGeometry x="780" y="-110" width="100" height="40" as="geometry" />
        </mxCell>
        <mxCell id="wzAtk1X6lChH-rVsv0TU-65" value="id_categoria" style="ellipse;whiteSpace=wrap;html=1;align=center;" vertex="1" parent="1">
          <mxGeometry x="770" y="-160" width="100" height="40" as="geometry" />
        </mxCell>
        <mxCell id="wzAtk1X6lChH-rVsv0TU-66" value="" style="endArrow=none;html=1;rounded=0;entryX=0;entryY=0;entryDx=0;entryDy=0;exitX=0.64;exitY=0.892;exitDx=0;exitDy=0;exitPerimeter=0;" edge="1" parent="1" source="wzAtk1X6lChH-rVsv0TU-40">
          <mxGeometry relative="1" as="geometry">
            <mxPoint y="-15" as="sourcePoint" />
            <mxPoint x="90" y="70" as="targetPoint" />
            <Array as="points">
              <mxPoint x="60" y="30" />
            </Array>
          </mxGeometry>
        </mxCell>
        <mxCell id="wzAtk1X6lChH-rVsv0TU-68" value="" style="endArrow=none;html=1;rounded=0;entryX=0;entryY=0.25;entryDx=0;entryDy=0;exitX=1;exitY=1;exitDx=0;exitDy=0;" edge="1" parent="1" source="wzAtk1X6lChH-rVsv0TU-47" target="wzAtk1X6lChH-rVsv0TU-1">
          <mxGeometry relative="1" as="geometry">
            <mxPoint x="-30" y="110" as="sourcePoint" />
            <mxPoint x="60" y="195" as="targetPoint" />
          </mxGeometry>
        </mxCell>
        <mxCell id="wzAtk1X6lChH-rVsv0TU-69" value="" style="endArrow=none;html=1;rounded=0;entryX=0;entryY=0.75;entryDx=0;entryDy=0;exitX=1;exitY=0.5;exitDx=0;exitDy=0;" edge="1" parent="1" source="wzAtk1X6lChH-rVsv0TU-48" target="wzAtk1X6lChH-rVsv0TU-1">
          <mxGeometry relative="1" as="geometry">
            <mxPoint x="60" y="230" as="sourcePoint" />
            <mxPoint x="150" y="315" as="targetPoint" />
          </mxGeometry>
        </mxCell>
        <mxCell id="wzAtk1X6lChH-rVsv0TU-70" value="" style="endArrow=none;html=1;rounded=0;entryX=0;entryY=1;entryDx=0;entryDy=0;exitX=1;exitY=0.5;exitDx=0;exitDy=0;" edge="1" parent="1" source="wzAtk1X6lChH-rVsv0TU-46" target="wzAtk1X6lChH-rVsv0TU-1">
          <mxGeometry relative="1" as="geometry">
            <mxPoint x="40" y="310" as="sourcePoint" />
            <mxPoint x="130" y="395" as="targetPoint" />
          </mxGeometry>
        </mxCell>
        <mxCell id="wzAtk1X6lChH-rVsv0TU-71" value="" style="endArrow=none;html=1;rounded=0;entryX=0.087;entryY=0.031;entryDx=0;entryDy=0;exitX=1;exitY=1;exitDx=0;exitDy=0;entryPerimeter=0;" edge="1" parent="1" source="wzAtk1X6lChH-rVsv0TU-62" target="wzAtk1X6lChH-rVsv0TU-3">
          <mxGeometry relative="1" as="geometry">
            <mxPoint x="310" y="-20" as="sourcePoint" />
            <mxPoint x="400" y="65" as="targetPoint" />
          </mxGeometry>
        </mxCell>
        <mxCell id="wzAtk1X6lChH-rVsv0TU-72" value="" style="endArrow=none;html=1;rounded=0;entryX=0.25;entryY=0;entryDx=0;entryDy=0;exitX=0.5;exitY=1;exitDx=0;exitDy=0;" edge="1" parent="1" source="wzAtk1X6lChH-rVsv0TU-41" target="wzAtk1X6lChH-rVsv0TU-3">
          <mxGeometry relative="1" as="geometry">
            <mxPoint x="330" y="-30" as="sourcePoint" />
            <mxPoint x="420" y="55" as="targetPoint" />
          </mxGeometry>
        </mxCell>
        <mxCell id="wzAtk1X6lChH-rVsv0TU-73" value="" style="endArrow=none;html=1;rounded=0;entryX=0.42;entryY=0.009;entryDx=0;entryDy=0;exitX=0.5;exitY=1;exitDx=0;exitDy=0;entryPerimeter=0;" edge="1" parent="1" source="wzAtk1X6lChH-rVsv0TU-63" target="wzAtk1X6lChH-rVsv0TU-3">
          <mxGeometry relative="1" as="geometry">
            <mxPoint x="560" y="-60" as="sourcePoint" />
            <mxPoint x="650" y="25" as="targetPoint" />
          </mxGeometry>
        </mxCell>
        <mxCell id="wzAtk1X6lChH-rVsv0TU-74" value="" style="endArrow=none;html=1;rounded=0;entryX=0.5;entryY=0;entryDx=0;entryDy=0;exitX=0.5;exitY=1;exitDx=0;exitDy=0;" edge="1" parent="1" source="wzAtk1X6lChH-rVsv0TU-61" target="wzAtk1X6lChH-rVsv0TU-3">
          <mxGeometry relative="1" as="geometry">
            <mxPoint x="610" y="-60" as="sourcePoint" />
            <mxPoint x="700" y="25" as="targetPoint" />
          </mxGeometry>
        </mxCell>
        <mxCell id="wzAtk1X6lChH-rVsv0TU-75" value="" style="endArrow=none;html=1;rounded=0;entryX=0.607;entryY=0.009;entryDx=0;entryDy=0;exitX=0;exitY=1;exitDx=0;exitDy=0;entryPerimeter=0;" edge="1" parent="1" source="wzAtk1X6lChH-rVsv0TU-59" target="wzAtk1X6lChH-rVsv0TU-3">
          <mxGeometry relative="1" as="geometry">
            <mxPoint x="590" y="-10" as="sourcePoint" />
            <mxPoint x="680" y="75" as="targetPoint" />
          </mxGeometry>
        </mxCell>
        <mxCell id="wzAtk1X6lChH-rVsv0TU-76" value="" style="endArrow=none;html=1;rounded=0;entryX=0.75;entryY=0;entryDx=0;entryDy=0;exitX=0;exitY=1;exitDx=0;exitDy=0;" edge="1" parent="1" source="wzAtk1X6lChH-rVsv0TU-58" target="wzAtk1X6lChH-rVsv0TU-3">
          <mxGeometry relative="1" as="geometry">
            <mxPoint x="680" y="-20" as="sourcePoint" />
            <mxPoint x="770" y="65" as="targetPoint" />
          </mxGeometry>
        </mxCell>
        <mxCell id="wzAtk1X6lChH-rVsv0TU-77" value="" style="endArrow=none;html=1;rounded=0;entryX=0.927;entryY=-0.006;entryDx=0;entryDy=0;entryPerimeter=0;exitX=0;exitY=1;exitDx=0;exitDy=0;" edge="1" parent="1" source="wzAtk1X6lChH-rVsv0TU-65" target="wzAtk1X6lChH-rVsv0TU-3">
          <mxGeometry relative="1" as="geometry">
            <mxPoint x="790" y="-120" as="sourcePoint" />
            <mxPoint x="870" y="-25" as="targetPoint" />
          </mxGeometry>
        </mxCell>
        <mxCell id="wzAtk1X6lChH-rVsv0TU-78" value="" style="endArrow=none;html=1;rounded=0;entryX=1;entryY=0;entryDx=0;entryDy=0;exitX=0;exitY=0.5;exitDx=0;exitDy=0;" edge="1" parent="1" source="wzAtk1X6lChH-rVsv0TU-64" target="wzAtk1X6lChH-rVsv0TU-3">
          <mxGeometry relative="1" as="geometry">
            <mxPoint x="690" y="20" as="sourcePoint" />
            <mxPoint x="780" y="105" as="targetPoint" />
          </mxGeometry>
        </mxCell>
        <mxCell id="wzAtk1X6lChH-rVsv0TU-79" value="" style="endArrow=none;html=1;rounded=0;entryX=0.998;entryY=0.165;entryDx=0;entryDy=0;exitX=0;exitY=0.5;exitDx=0;exitDy=0;entryPerimeter=0;" edge="1" parent="1" source="wzAtk1X6lChH-rVsv0TU-60" target="wzAtk1X6lChH-rVsv0TU-3">
          <mxGeometry relative="1" as="geometry">
            <mxPoint x="760" y="30" as="sourcePoint" />
            <mxPoint x="850" y="115" as="targetPoint" />
          </mxGeometry>
        </mxCell>
        <mxCell id="wzAtk1X6lChH-rVsv0TU-80" value="" style="endArrow=none;html=1;rounded=0;entryX=0;entryY=0.5;entryDx=0;entryDy=0;exitX=1;exitY=0;exitDx=0;exitDy=0;" edge="1" parent="1" source="wzAtk1X6lChH-rVsv0TU-4" target="wzAtk1X6lChH-rVsv0TU-57">
          <mxGeometry relative="1" as="geometry">
            <mxPoint x="1160" y="50" as="sourcePoint" />
            <mxPoint x="1250" y="135" as="targetPoint" />
          </mxGeometry>
        </mxCell>
        <mxCell id="wzAtk1X6lChH-rVsv0TU-81" value="" style="endArrow=none;html=1;rounded=0;entryX=0;entryY=0.5;entryDx=0;entryDy=0;exitX=1;exitY=1;exitDx=0;exitDy=0;" edge="1" parent="1" source="wzAtk1X6lChH-rVsv0TU-4" target="wzAtk1X6lChH-rVsv0TU-45">
          <mxGeometry relative="1" as="geometry">
            <mxPoint x="1220" y="260" as="sourcePoint" />
            <mxPoint x="1310" y="345" as="targetPoint" />
          </mxGeometry>
        </mxCell>
        <mxCell id="wzAtk1X6lChH-rVsv0TU-82" value="" style="endArrow=none;html=1;rounded=0;exitX=1;exitY=0.25;exitDx=0;exitDy=0;" edge="1" parent="1" source="wzAtk1X6lChH-rVsv0TU-5">
          <mxGeometry relative="1" as="geometry">
            <mxPoint x="1260" y="350" as="sourcePoint" />
            <mxPoint x="1170" y="410" as="targetPoint" />
          </mxGeometry>
        </mxCell>
        <mxCell id="wzAtk1X6lChH-rVsv0TU-83" value="" style="endArrow=none;html=1;rounded=0;entryX=0.5;entryY=0;entryDx=0;entryDy=0;exitX=1;exitY=1;exitDx=0;exitDy=0;" edge="1" parent="1" source="wzAtk1X6lChH-rVsv0TU-5" target="wzAtk1X6lChH-rVsv0TU-44">
          <mxGeometry relative="1" as="geometry">
            <mxPoint x="1290" y="470" as="sourcePoint" />
            <mxPoint x="1380" y="555" as="targetPoint" />
          </mxGeometry>
        </mxCell>
        <mxCell id="wzAtk1X6lChH-rVsv0TU-84" value="" style="endArrow=none;html=1;rounded=0;exitX=0.5;exitY=1;exitDx=0;exitDy=0;" edge="1" parent="1" source="wzAtk1X6lChH-rVsv0TU-5" target="wzAtk1X6lChH-rVsv0TU-55">
          <mxGeometry relative="1" as="geometry">
            <mxPoint x="1340" y="510" as="sourcePoint" />
            <mxPoint x="1430" y="595" as="targetPoint" />
          </mxGeometry>
        </mxCell>
        <mxCell id="wzAtk1X6lChH-rVsv0TU-85" value="" style="endArrow=none;html=1;rounded=0;entryX=0.333;entryY=1.025;entryDx=0;entryDy=0;exitX=1;exitY=0.75;exitDx=0;exitDy=0;entryPerimeter=0;" edge="1" parent="1" source="wzAtk1X6lChH-rVsv0TU-6" target="wzAtk1X6lChH-rVsv0TU-54">
          <mxGeometry relative="1" as="geometry">
            <mxPoint x="1350" y="520" as="sourcePoint" />
            <mxPoint x="1440" y="605" as="targetPoint" />
          </mxGeometry>
        </mxCell>
        <mxCell id="wzAtk1X6lChH-rVsv0TU-86" value="" style="endArrow=none;html=1;rounded=0;entryX=0.373;entryY=0.125;entryDx=0;entryDy=0;exitX=1;exitY=1;exitDx=0;exitDy=0;entryPerimeter=0;" edge="1" parent="1" source="wzAtk1X6lChH-rVsv0TU-6" target="wzAtk1X6lChH-rVsv0TU-52">
          <mxGeometry relative="1" as="geometry">
            <mxPoint x="980" y="540" as="sourcePoint" />
            <mxPoint x="1070" y="625" as="targetPoint" />
          </mxGeometry>
        </mxCell>
        <mxCell id="wzAtk1X6lChH-rVsv0TU-87" value="" style="endArrow=none;html=1;rounded=0;entryX=0.5;entryY=0;entryDx=0;entryDy=0;exitX=0.5;exitY=1;exitDx=0;exitDy=0;" edge="1" parent="1" source="wzAtk1X6lChH-rVsv0TU-6" target="wzAtk1X6lChH-rVsv0TU-43">
          <mxGeometry relative="1" as="geometry">
            <mxPoint x="970" y="600" as="sourcePoint" />
            <mxPoint x="1060" y="685" as="targetPoint" />
          </mxGeometry>
        </mxCell>
        <mxCell id="wzAtk1X6lChH-rVsv0TU-88" value="" style="endArrow=none;html=1;rounded=0;exitX=0;exitY=1;exitDx=0;exitDy=0;" edge="1" parent="1" source="wzAtk1X6lChH-rVsv0TU-6" target="wzAtk1X6lChH-rVsv0TU-53">
          <mxGeometry relative="1" as="geometry">
            <mxPoint x="700" y="670" as="sourcePoint" />
            <mxPoint x="790" y="755" as="targetPoint" />
          </mxGeometry>
        </mxCell>
        <mxCell id="wzAtk1X6lChH-rVsv0TU-89" value="" style="endArrow=none;html=1;rounded=0;entryX=1;entryY=0;entryDx=0;entryDy=0;exitX=0;exitY=0.75;exitDx=0;exitDy=0;" edge="1" parent="1" source="wzAtk1X6lChH-rVsv0TU-2" target="wzAtk1X6lChH-rVsv0TU-49">
          <mxGeometry relative="1" as="geometry">
            <mxPoint x="-10" y="400" as="sourcePoint" />
            <mxPoint x="80" y="485" as="targetPoint" />
          </mxGeometry>
        </mxCell>
        <mxCell id="wzAtk1X6lChH-rVsv0TU-90" value="" style="endArrow=none;html=1;rounded=0;entryX=0.5;entryY=0;entryDx=0;entryDy=0;exitX=0.344;exitY=0.983;exitDx=0;exitDy=0;exitPerimeter=0;" edge="1" parent="1" source="wzAtk1X6lChH-rVsv0TU-2" target="wzAtk1X6lChH-rVsv0TU-42">
          <mxGeometry relative="1" as="geometry">
            <mxPoint x="180" y="600" as="sourcePoint" />
            <mxPoint x="270" y="685" as="targetPoint" />
          </mxGeometry>
        </mxCell>
        <mxCell id="wzAtk1X6lChH-rVsv0TU-91" value="" style="endArrow=none;html=1;rounded=0;exitX=1;exitY=1;exitDx=0;exitDy=0;" edge="1" parent="1" source="wzAtk1X6lChH-rVsv0TU-2" target="wzAtk1X6lChH-rVsv0TU-50">
          <mxGeometry relative="1" as="geometry">
            <mxPoint x="440" y="690" as="sourcePoint" />
            <mxPoint x="530" y="775" as="targetPoint" />
          </mxGeometry>
        </mxCell>
        <mxCell id="wzAtk1X6lChH-rVsv0TU-93" value="" style="endArrow=none;html=1;rounded=0;entryX=0;entryY=0.5;entryDx=0;entryDy=0;exitX=1;exitY=0.5;exitDx=0;exitDy=0;" edge="1" parent="1" source="wzAtk1X6lChH-rVsv0TU-2" target="wzAtk1X6lChH-rVsv0TU-51">
          <mxGeometry relative="1" as="geometry">
            <mxPoint x="400" y="620" as="sourcePoint" />
            <mxPoint x="490" y="705" as="targetPoint" />
          </mxGeometry>
        </mxCell>
      </root>
    </mxGraphModel>
  </diagram>
</mxfile>
